<mxfile host="app.diagrams.net" modified="2023-11-10T12:21:17.169Z" agent="Mozilla/5.0 (Windows NT 10.0; Win64; x64) AppleWebKit/537.36 (KHTML, like Gecko) Chrome/119.0.0.0 Safari/537.36" version="22.1.0" etag="1VLqOlE0S7vEunkEMtVu" type="github">
  <diagram name="第 1 页" id="lMXs8Q7rvd494dYoZQJ7">
    <mxGraphModel>
      <root>
        <mxCell id="0" />
        <mxCell id="1" parent="0" />
      </root>
    </mxGraphModel>
  </diagram>
</mxfile>
